<svg width="237" height="245" viewBox="0 0 237 245" fill="none" xmlns="http://www.w3.org/2000/svg">
<line x1="135.865" y1="47.4983" x2="164.865" y2="97.4983" stroke="black" stroke-width="2"/>
<line x1="84.8818" y1="139.528" x2="107.882" y2="182.528" stroke="black" stroke-width="2"/>
<circle cx="125" cy="25" r="25" fill="#D9D9D9"/>
<circle cx="75" cy="118" r="25" fill="#D9D9D9"/>
<circle cx="114" cy="205" r="25" fill="#D9D9D9"/>
<circle cx="25" cy="205" r="25" fill="#D9D9D9"/>
<circle cx="175" cy="118" r="25" fill="#D9D9D9"/>
<line x1="115.864" y1="48.5039" x2="87.8638" y2="96.5039" stroke="black" stroke-width="2"/>
<line x1="63.8557" y1="140.517" x2="37.8557" y2="183.517" stroke="black" stroke-width="2"/>
<line x1="187.899" y1="139.561" x2="208.899" y2="182.561" stroke="black" stroke-width="2"/>
<circle cx="212" cy="205" r="25" fill="#D9D9D9"/>
<g filter="url(#filter0_d_44_55)">
<circle cx="125" cy="23" r="17" fill="#A8B868"/>
</g>
<g filter="url(#filter1_d_44_55)">
<circle cx="25" cy="205" r="17" fill="#E34242"/>
</g>
<g filter="url(#filter2_d_44_55)">
<circle cx="114" cy="203" r="17" fill="#68AEB8"/>
</g>
<g filter="url(#filter3_d_44_55)">
<circle cx="212" cy="205" r="17" fill="#946340"/>
</g>
<g filter="url(#filter4_d_44_55)">
<circle cx="75" cy="117" r="17" fill="#6875B8"/>
</g>
<g filter="url(#filter5_d_44_55)">
<circle cx="176" cy="118" r="17" fill="#B868B5"/>
</g>
<path d="M117.203 37V12.2727H125.558C127.498 12.2727 129.084 12.6229 130.316 13.3232C131.555 14.0154 132.473 14.9531 133.068 16.1364C133.664 17.3196 133.962 18.6397 133.962 20.0966C133.962 21.5535 133.664 22.8776 133.068 24.0689C132.481 25.2602 131.571 26.21 130.34 26.9183C129.108 27.6186 127.53 27.9688 125.607 27.9688H119.618V25.3125H125.51C126.838 25.3125 127.905 25.0831 128.71 24.6243C129.515 24.1655 130.098 23.5457 130.46 22.7649C130.831 21.9761 131.016 21.0866 131.016 20.0966C131.016 19.1065 130.831 18.2211 130.46 17.4403C130.098 16.6596 129.511 16.0478 128.698 15.6051C127.885 15.1544 126.806 14.929 125.462 14.929H120.198V37H117.203Z" fill="white"/>
<path d="M23.4062 217H15.7756V192.273H23.7443C26.143 192.273 28.1955 192.768 29.902 193.758C31.6084 194.74 32.9164 196.152 33.826 197.996C34.7356 199.831 35.1903 202.028 35.1903 204.588C35.1903 207.164 34.7315 209.381 33.8139 211.241C32.8963 213.092 31.5601 214.517 29.8054 215.515C28.0507 216.505 25.9176 217 23.4062 217ZM18.7699 214.344H23.2131C25.2576 214.344 26.9519 213.949 28.2962 213.161C29.6404 212.372 30.6425 211.249 31.3026 209.792C31.9626 208.335 32.2926 206.6 32.2926 204.588C32.2926 202.592 31.9666 200.873 31.3146 199.433C30.6626 197.984 29.6887 196.873 28.3928 196.1C27.0968 195.319 25.483 194.929 23.5511 194.929H18.7699V214.344Z" fill="white"/>
<path d="M124.909 202.636C124.909 205.244 124.438 207.498 123.496 209.398C122.554 211.297 121.262 212.762 119.62 213.793C117.978 214.823 116.103 215.338 113.994 215.338C111.885 215.338 110.01 214.823 108.368 213.793C106.725 212.762 105.434 211.297 104.492 209.398C103.55 207.498 103.079 205.244 103.079 202.636C103.079 200.028 103.55 197.775 104.492 195.875C105.434 193.975 106.725 192.51 108.368 191.48C110.01 190.45 111.885 189.935 113.994 189.935C116.103 189.935 117.978 190.45 119.62 191.48C121.262 192.51 122.554 193.975 123.496 195.875C124.438 197.775 124.909 200.028 124.909 202.636ZM122.011 202.636C122.011 200.495 121.653 198.688 120.936 197.215C120.228 195.742 119.266 194.627 118.051 193.871C116.843 193.114 115.491 192.736 113.994 192.736C112.497 192.736 111.141 193.114 109.925 193.871C108.718 194.627 107.756 195.742 107.039 197.215C106.331 198.688 105.977 200.495 105.977 202.636C105.977 204.777 106.331 206.585 107.039 208.058C107.756 209.531 108.718 210.645 109.925 211.402C111.141 212.159 112.497 212.537 113.994 212.537C115.491 212.537 116.843 212.159 118.051 211.402C119.266 210.645 120.228 209.531 120.936 208.058C121.653 206.585 122.011 204.777 122.011 202.636Z" fill="white"/>
<path d="M217.676 198.455C217.531 197.231 216.944 196.281 215.913 195.605C214.883 194.929 213.619 194.591 212.122 194.591C211.028 194.591 210.07 194.768 209.249 195.122C208.436 195.476 207.8 195.963 207.341 196.583C206.89 197.203 206.665 197.907 206.665 198.696C206.665 199.356 206.822 199.924 207.136 200.398C207.458 200.865 207.868 201.256 208.367 201.57C208.866 201.875 209.39 202.129 209.937 202.33C210.484 202.523 210.987 202.68 211.446 202.801L213.957 203.477C214.601 203.646 215.318 203.88 216.107 204.178C216.903 204.475 217.664 204.882 218.389 205.397C219.121 205.904 219.725 206.556 220.2 207.353C220.675 208.15 220.912 209.128 220.912 210.287C220.912 211.623 220.562 212.83 219.862 213.909C219.169 214.988 218.155 215.845 216.819 216.481C215.491 217.117 213.877 217.435 211.977 217.435C210.207 217.435 208.673 217.149 207.377 216.577C206.089 216.006 205.075 215.209 204.335 214.187C203.602 213.165 203.188 211.977 203.091 210.625H206.182C206.262 211.559 206.576 212.331 207.124 212.943C207.679 213.547 208.379 213.998 209.225 214.295C210.078 214.585 210.995 214.73 211.977 214.73C213.12 214.73 214.147 214.545 215.056 214.175C215.966 213.796 216.686 213.273 217.217 212.605C217.749 211.929 218.014 211.14 218.014 210.239C218.014 209.418 217.785 208.75 217.326 208.234C216.867 207.719 216.264 207.301 215.515 206.979C214.766 206.657 213.957 206.375 213.088 206.134L210.046 205.264C208.114 204.709 206.584 203.916 205.457 202.886C204.331 201.855 203.767 200.507 203.767 198.841C203.767 197.456 204.141 196.249 204.89 195.219C205.647 194.18 206.661 193.375 207.933 192.804C209.212 192.224 210.641 191.935 212.219 191.935C213.813 191.935 215.229 192.22 216.469 192.792C217.708 193.355 218.69 194.128 219.415 195.11C220.147 196.092 220.534 197.207 220.574 198.455H217.676Z" fill="white"/>
<path d="M67.1203 130V105.273H75.4754C77.4072 105.273 78.9929 105.603 80.2325 106.263C81.4721 106.915 82.3897 107.812 82.9854 108.955C83.581 110.098 83.8788 111.398 83.8788 112.855C83.8788 114.312 83.581 115.604 82.9854 116.731C82.3897 117.858 81.4761 118.743 80.2446 119.387C79.0131 120.023 77.4394 120.341 75.5237 120.341H68.7623V117.636H75.4271C76.7472 117.636 77.8097 117.443 78.6146 117.057C79.4276 116.67 80.0152 116.123 80.3774 115.415C80.7477 114.698 80.9328 113.845 80.9328 112.855C80.9328 111.865 80.7477 111 80.3774 110.259C80.0071 109.519 79.4155 108.947 78.6025 108.545C77.7896 108.134 76.715 107.929 75.3788 107.929H70.1146V130H67.1203ZM78.7595 118.892L84.8447 130H81.3675L75.3788 118.892H78.7595Z" fill="white"/>
<path d="M186.909 117.636C186.909 120.244 186.438 122.498 185.496 124.398C184.554 126.297 183.262 127.762 181.62 128.793C179.978 129.823 178.103 130.338 175.994 130.338C173.885 130.338 172.01 129.823 170.368 128.793C168.725 127.762 167.434 126.297 166.492 124.398C165.55 122.498 165.079 120.244 165.079 117.636C165.079 115.028 165.55 112.775 166.492 110.875C167.434 108.975 168.725 107.51 170.368 106.48C172.01 105.45 173.885 104.935 175.994 104.935C178.103 104.935 179.978 105.45 181.62 106.48C183.262 107.51 184.554 108.975 185.496 110.875C186.438 112.775 186.909 115.028 186.909 117.636ZM184.011 117.636C184.011 115.495 183.653 113.688 182.936 112.215C182.228 110.742 181.266 109.627 180.051 108.871C178.843 108.114 177.491 107.736 175.994 107.736C174.497 107.736 173.141 108.114 171.925 108.871C170.718 109.627 169.756 110.742 169.039 112.215C168.331 113.688 167.977 115.495 167.977 117.636C167.977 119.777 168.331 121.585 169.039 123.058C169.756 124.531 170.718 125.645 171.925 126.402C173.141 127.159 174.497 127.537 175.994 127.537C177.491 127.537 178.843 127.159 180.051 126.402C181.266 125.645 182.228 124.531 182.936 123.058C183.653 121.585 184.011 119.777 184.011 117.636Z" fill="white"/>
<defs>
<filter id="filter0_d_44_55" x="104" y="6" width="42" height="42" filterUnits="userSpaceOnUse" color-interpolation-filters="sRGB">
<feFlood flood-opacity="0" result="BackgroundImageFix"/>
<feColorMatrix in="SourceAlpha" type="matrix" values="0 0 0 0 0 0 0 0 0 0 0 0 0 0 0 0 0 0 127 0" result="hardAlpha"/>
<feOffset dy="4"/>
<feGaussianBlur stdDeviation="2"/>
<feComposite in2="hardAlpha" operator="out"/>
<feColorMatrix type="matrix" values="0 0 0 0 0 0 0 0 0 0 0 0 0 0 0 0 0 0 0.25 0"/>
<feBlend mode="normal" in2="BackgroundImageFix" result="effect1_dropShadow_44_55"/>
<feBlend mode="normal" in="SourceGraphic" in2="effect1_dropShadow_44_55" result="shape"/>
</filter>
<filter id="filter1_d_44_55" x="4" y="188" width="42" height="42" filterUnits="userSpaceOnUse" color-interpolation-filters="sRGB">
<feFlood flood-opacity="0" result="BackgroundImageFix"/>
<feColorMatrix in="SourceAlpha" type="matrix" values="0 0 0 0 0 0 0 0 0 0 0 0 0 0 0 0 0 0 127 0" result="hardAlpha"/>
<feOffset dy="4"/>
<feGaussianBlur stdDeviation="2"/>
<feComposite in2="hardAlpha" operator="out"/>
<feColorMatrix type="matrix" values="0 0 0 0 0 0 0 0 0 0 0 0 0 0 0 0 0 0 0.25 0"/>
<feBlend mode="normal" in2="BackgroundImageFix" result="effect1_dropShadow_44_55"/>
<feBlend mode="normal" in="SourceGraphic" in2="effect1_dropShadow_44_55" result="shape"/>
</filter>
<filter id="filter2_d_44_55" x="93" y="186" width="42" height="42" filterUnits="userSpaceOnUse" color-interpolation-filters="sRGB">
<feFlood flood-opacity="0" result="BackgroundImageFix"/>
<feColorMatrix in="SourceAlpha" type="matrix" values="0 0 0 0 0 0 0 0 0 0 0 0 0 0 0 0 0 0 127 0" result="hardAlpha"/>
<feOffset dy="4"/>
<feGaussianBlur stdDeviation="2"/>
<feComposite in2="hardAlpha" operator="out"/>
<feColorMatrix type="matrix" values="0 0 0 0 0 0 0 0 0 0 0 0 0 0 0 0 0 0 0.25 0"/>
<feBlend mode="normal" in2="BackgroundImageFix" result="effect1_dropShadow_44_55"/>
<feBlend mode="normal" in="SourceGraphic" in2="effect1_dropShadow_44_55" result="shape"/>
</filter>
<filter id="filter3_d_44_55" x="191" y="188" width="42" height="42" filterUnits="userSpaceOnUse" color-interpolation-filters="sRGB">
<feFlood flood-opacity="0" result="BackgroundImageFix"/>
<feColorMatrix in="SourceAlpha" type="matrix" values="0 0 0 0 0 0 0 0 0 0 0 0 0 0 0 0 0 0 127 0" result="hardAlpha"/>
<feOffset dy="4"/>
<feGaussianBlur stdDeviation="2"/>
<feComposite in2="hardAlpha" operator="out"/>
<feColorMatrix type="matrix" values="0 0 0 0 0 0 0 0 0 0 0 0 0 0 0 0 0 0 0.25 0"/>
<feBlend mode="normal" in2="BackgroundImageFix" result="effect1_dropShadow_44_55"/>
<feBlend mode="normal" in="SourceGraphic" in2="effect1_dropShadow_44_55" result="shape"/>
</filter>
<filter id="filter4_d_44_55" x="54" y="100" width="42" height="42" filterUnits="userSpaceOnUse" color-interpolation-filters="sRGB">
<feFlood flood-opacity="0" result="BackgroundImageFix"/>
<feColorMatrix in="SourceAlpha" type="matrix" values="0 0 0 0 0 0 0 0 0 0 0 0 0 0 0 0 0 0 127 0" result="hardAlpha"/>
<feOffset dy="4"/>
<feGaussianBlur stdDeviation="2"/>
<feComposite in2="hardAlpha" operator="out"/>
<feColorMatrix type="matrix" values="0 0 0 0 0 0 0 0 0 0 0 0 0 0 0 0 0 0 0.25 0"/>
<feBlend mode="normal" in2="BackgroundImageFix" result="effect1_dropShadow_44_55"/>
<feBlend mode="normal" in="SourceGraphic" in2="effect1_dropShadow_44_55" result="shape"/>
</filter>
<filter id="filter5_d_44_55" x="155" y="101" width="42" height="42" filterUnits="userSpaceOnUse" color-interpolation-filters="sRGB">
<feFlood flood-opacity="0" result="BackgroundImageFix"/>
<feColorMatrix in="SourceAlpha" type="matrix" values="0 0 0 0 0 0 0 0 0 0 0 0 0 0 0 0 0 0 127 0" result="hardAlpha"/>
<feOffset dy="4"/>
<feGaussianBlur stdDeviation="2"/>
<feComposite in2="hardAlpha" operator="out"/>
<feColorMatrix type="matrix" values="0 0 0 0 0 0 0 0 0 0 0 0 0 0 0 0 0 0 0.25 0"/>
<feBlend mode="normal" in2="BackgroundImageFix" result="effect1_dropShadow_44_55"/>
<feBlend mode="normal" in="SourceGraphic" in2="effect1_dropShadow_44_55" result="shape"/>
</filter>
</defs>
</svg>
